<!-- Generated by SVG Bookmark Generator -->
<svg viewBox="0 0 200 40"
     width="200mm"
     height="40mm"
     style="font-size: 2mm; vertical-align: middle; font-family: 'Cascadia Code'"
     xmlns="http://www.w3.org/2000/svg">
    <path d="M0,30 C0,30 0,40 10,40 L10,40 190,40 C190,40 200,40 200,30 L200,30 200,10 C200,10 200,0 190,0 L190,0 10,0 C10,0 0,0 0,10 L0,10 0,30"
            fill="white" stroke="black"/>
    <path d="M0,15.416668 C0,15.416668 0,25.416668 10,25.416668 L10,25.416668 13.396227,25.416668 L13.396227,22.916666 16.792454,22.916666 L16.792454,25 20.18868,25 L20.18868,22.916666 23.584908,22.916666 L23.584908,20.833334 26.981134,20.833334 L26.981134,21.25 30.377361,21.25 L30.377361,20 33.773586,20 L33.773586,21.666666 37.16981,21.666666 L37.16981,22.083334 40.566036,22.083334 L40.566036,20.833334 43.96226,20.833334 L43.96226,20 47.358486,20 L47.358486,23.75 50.75471,23.75 L50.75471,20 54.150936,20 L54.150936,21.25 57.54716,21.25 L57.54716,20 60.943386,20 L60.943386,20.833334 64.339615,20.833334 L64.339615,20 67.73584,20 L67.73584,20 71.132065,20 L71.132065,20 74.52829,20 L74.52829,20.416666 77.924515,20.416666 L77.924515,20 81.32074,20 L81.32074,40 84.716965,40 L84.716965,23.75 88.11319,23.75 L88.11319,20 91.509415,20 L91.509415,22.083334 94.90564,22.083334 L94.90564,21.666666 98.301865,21.666666 L98.301865,20 101.69809,20 L101.69809,22.916666 105.094315,22.916666 L105.094315,20 108.49054,20 L108.49054,20 111.886765,20 L111.886765,20.416666 115.28299,20.416666 L115.28299,20 118.679214,20 L118.679214,20 122.07544,20 L122.07544,20 125.471664,20 L125.471664,20.416666 128.86789,20.416666 L128.86789,20.416666 132.26411,20.416666 L132.26411,20 135.66034,20 L135.66034,29.583332 139.05656,29.583332 L139.05656,21.666666 142.45279,21.666666 L142.45279,20 145.84901,20 L145.84901,20 149.24524,20 L149.24524,20 152.64146,20 L152.64146,20 156.03769,20 L156.03769,20.416666 159.43391,20.416666 L159.43391,25.416668 162.83014,25.416668 L162.83014,21.25 166.22636,21.25 L166.22636,35 169.62259,35 L169.62259,22.083334 173.01881,22.083334 L173.01881,20 176.41504,20 L176.41504,23.333334 179.81126,23.333334 L179.81126,20.416666 183.20749,20.416666 L183.20749,20.833334 186.60371,20.833334 L186.60371,20 189.99994,20 C189.99994,20 200,20 200,10 L200,10 200,10 C200,10 200,0 190,0 L190,0 10,0 C10,0 0,0 0,10 L0,10 0,15.416668"
            fill="white" stroke="black"/>
    <text x="10" y="10" alignment-baseline="middle" style="font-weight: bolder">runewake2</text>
    <text x="190" y="10" alignment-baseline="middle" text-anchor="end">2021-2022</text>
</svg>
