<!-- Generated by SVG Bookmark Generator -->
<svg viewBox="0 0 200 40"
     width="200mm"
     height="40mm"
     style="font-size: 2mm; vertical-align: middle; font-family: 'Cascadia Code'"
     xmlns="http://www.w3.org/2000/svg">
    <path d="M0,10 C0,10 0,0 10,0 L10,0 190,0 C190,0 200,0 200,10 L200,10 200,30 C200,30 200,40 190,40 L190,40 10,40 C10,40 0,40 0,30 L0,30 0,10"
            fill="white" stroke="black" />
    <path d="M0,24.583332 C0,24.583332 0,14.583332 10,14.583332 L10,14.583332 13.396227,14.583332 L13.396227,17.083334 16.792454,17.083334 L16.792454,15 20.18868,15 L20.18868,17.083334 23.584908,17.083334 L23.584908,19.166666 26.981134,19.166666 L26.981134,18.75 30.377361,18.75 L30.377361,20 33.773586,20 L33.773586,18.333334 37.16981,18.333334 L37.16981,17.916666 40.566036,17.916666 L40.566036,19.166666 43.96226,19.166666 L43.96226,20 47.358486,20 L47.358486,16.25 50.75471,16.25 L50.75471,20 54.150936,20 L54.150936,18.75 57.54716,18.75 L57.54716,20 60.943386,20 L60.943386,19.166666 64.339615,19.166666 L64.339615,20 67.73584,20 L67.73584,20 71.132065,20 L71.132065,20 74.52829,20 L74.52829,19.583334 77.924515,19.583334 L77.924515,20 81.32074,20 L81.32074,0 84.716965,0 L84.716965,16.25 88.11319,16.25 L88.11319,20 91.509415,20 L91.509415,17.916666 94.90564,17.916666 L94.90564,18.333334 98.301865,18.333334 L98.301865,20 101.69809,20 L101.69809,17.083334 105.094315,17.083334 L105.094315,20 108.49054,20 L108.49054,20 111.886765,20 L111.886765,19.583334 115.28299,19.583334 L115.28299,20 118.679214,20 L118.679214,20 122.07544,20 L122.07544,20 125.471664,20 L125.471664,19.583334 128.86789,19.583334 L128.86789,19.583334 132.26411,19.583334 L132.26411,20 135.66034,20 L135.66034,10.416668 139.05656,10.416668 L139.05656,18.333334 142.45279,18.333334 L142.45279,20 145.84901,20 L145.84901,20 149.24524,20 L149.24524,20 152.64146,20 L152.64146,20 156.03769,20 L156.03769,19.583334 159.43391,19.583334 L159.43391,14.583332 162.83014,14.583332 L162.83014,18.75 166.22636,18.75 L166.22636,5 169.62259,5 L169.62259,17.916666 173.01881,17.916666 L173.01881,20 176.41504,20 L176.41504,16.666666 179.81126,16.666666 L179.81126,19.583334 183.20749,19.583334 L183.20749,19.166666 186.60371,19.166666 L186.60371,18.75 189.99994,18.75 C189.99994,18.75 200,18.75 200,28.75 L200,28.75 200,30 C200,30 200,40 190,40 L190,40 10,40 C10,40 0,40 0,30 L0,30 0,24.583332"
            fill="white" stroke="black" />
    <text x="10" y="30" alignment-baseline="middle" style="font-weight: bolder">runewake2</text>
    <text x="190" y="30" alignment-baseline="middle" text-anchor="end">2021-2022</text>
</svg>
